<?xml version="1.0" encoding="UTF-8" standalone="no"?>
<!-- Created with Inkscape (http://www.inkscape.org/) -->

<svg
   width="180.3241mm"
   height="50.070435mm"
   viewBox="0 0 180.3241 50.070434"
   version="1.1"
   id="svg5"
   inkscape:version="1.1 (c68e22c387, 2021-05-23)"
   sodipodi:docname="choose_map.svg"
   xmlns:inkscape="http://www.inkscape.org/namespaces/inkscape"
   xmlns:sodipodi="http://sodipodi.sourceforge.net/DTD/sodipodi-0.dtd"
   xmlns="http://www.w3.org/2000/svg"
   xmlns:svg="http://www.w3.org/2000/svg">
  <sodipodi:namedview
     id="namedview7"
     pagecolor="#505050"
     bordercolor="#eeeeee"
     borderopacity="1"
     inkscape:pageshadow="0"
     inkscape:pageopacity="0"
     inkscape:pagecheckerboard="0"
     inkscape:document-units="mm"
     showgrid="false"
     fit-margin-top="0"
     fit-margin-left="0"
     fit-margin-right="0"
     fit-margin-bottom="0"
     inkscape:zoom="0.74118967"
     inkscape:cx="-58.689431"
     inkscape:cy="252.97168"
     inkscape:window-width="1920"
     inkscape:window-height="1017"
     inkscape:window-x="-8"
     inkscape:window-y="-8"
     inkscape:window-maximized="1"
     inkscape:current-layer="layer1" />
  <defs
     id="defs2" />
  <g
     inkscape:label="Layer 1"
     inkscape:groupmode="layer"
     id="layer1"
     transform="translate(-17.279395,-24.537961)">
    <path
       style="fill:#ffffff;stroke-width:0.264583"
       id="path56"
       d="m 28.671118,48.802722 c -2.815336,0.73048 -5.37175,2.32954 -7.539169,4.24663 -0.736909,0.6518 -1.461643,1.32971 -2.074829,2.09905 -0.549751,0.68974 -0.927913,1.5003 -1.391869,2.25045 -0.124164,0.80112 -0.456182,1.59701 -0.372501,2.40336 0.196601,1.89449 1.458753,3.22135 2.909074,4.29185 1.574829,1.1624 4.117817,2.22423 5.955774,2.83058 0.952803,0.31431 1.940292,0.51164 2.910434,0.76746 0.830926,0.13882 1.661854,0.27764 2.492779,0.41646 0,0 1.824616,-0.40204 1.824616,-0.40204 v 0 c -0.837774,-0.13147 -1.675546,-0.26293 -2.513317,-0.39439 -0.973664,-0.24778 -1.96451,-0.43582 -2.920989,-0.74333 -1.825596,-0.58692 -4.346199,-1.62516 -5.918925,-2.76233 -1.395042,-1.00872 -2.670688,-2.29697 -2.867164,-4.11748 -0.08427,-0.78085 0.242413,-1.55195 0.363617,-2.32793 0.458568,-0.73605 0.831576,-1.5329 1.37571,-2.20817 2.02289,-2.51041 5.393398,-4.80651 8.438198,-5.88549 0.419362,-0.14861 0.861493,-0.22276 1.292239,-0.33414 0,0 -1.963704,-0.13049 -1.963704,-0.13049 z" />
    <path
       style="fill:#ffffff;stroke-width:0.264583"
       id="path62"
       d="m 58.933436,59.331319 c -0.880834,1.29853 -1.319264,2.78688 -1.621991,4.30768 -0.29282,1.37982 -0.0472,2.40286 0.880374,3.45504 0.824677,0.87128 1.953101,1.09651 3.093581,1.24171 1.52172,0.0663 2.97519,-0.74126 3.98747,-1.86956 0.78555,-0.71831 1.10204,-1.70441 1.28789,-2.72043 0.11852,-0.95943 0.19043,-1.93706 0.0935,-2.90085 -0.43719,-1.17823 -1.50108,-1.62135 -2.6323,-1.91178 -1.20705,-0.29702 -2.36945,-0.23262 -3.50519,0.26445 -1.223157,0.61231 -2.076671,1.01563 -2.823878,2.00461 0,0 1.819111,-0.77671 1.819111,-0.77671 v 0 c 0.448217,-0.52308 1.752157,-1.42542 -0.535457,-7.9e-4 1.088294,-0.56224 2.232594,-0.64411 3.426244,-0.37382 1.04967,0.24578 2.09776,0.60053 2.49861,1.70769 0.0812,0.94812 0.0165,1.90802 -0.11594,2.8491 -0.20625,0.99773 -0.55617,1.92092 -1.33585,2.61859 -0.11159,0.10967 -0.48011,0.38693 -0.33476,0.32901 0.48492,-0.19323 0.91684,-0.49936 1.37766,-0.74458 0.0991,-0.0527 -0.18905,0.12295 -0.29223,0.16699 -0.41089,0.17535 -0.86537,0.23608 -1.30781,0.21927 -1.09869,-0.12177 -2.20624,-0.29616 -3.01399,-1.12395 -0.912564,-1.00023 -1.081474,-1.97241 -0.801984,-3.28956 0.308637,-1.50716 0.769114,-2.97281 1.667314,-4.24429 0,0 -1.810324,0.79208 -1.810324,0.79208 z" />
    <path
       style="fill:#ffffff;stroke-width:0.264583"
       id="path62-9"
       d="m 47.855404,59.688609 c -0.88084,1.29853 -1.31927,2.78687 -1.62199,4.30768 -0.29282,1.37982 -0.0472,2.40286 0.88037,3.45504 0.82468,0.87128 1.9531,1.0965 3.09358,1.24171 1.52172,0.0663 2.97519,-0.74126 3.98747,-1.86957 0.78555,-0.71831 1.10204,-1.70441 1.28789,-2.72042 0.11852,-0.95943 0.19043,-1.93707 0.0935,-2.90086 -0.43719,-1.17823 -1.50108,-1.62135 -2.6323,-1.91177 -1.20705,-0.29703 -2.36945,-0.23262 -3.50519,0.26444 -1.22315,0.61231 -2.07667,1.01563 -2.82388,2.00461 0,0 1.81912,-0.7767 1.81912,-0.7767 v 0 c 0.44821,-0.52308 1.75215,-1.42542 -0.53546,-7.9e-4 1.08829,-0.56224 2.23259,-0.64411 3.42624,-0.37382 1.04967,0.24578 2.09776,0.60053 2.49861,1.70769 0.0812,0.94812 0.0165,1.90802 -0.11594,2.8491 -0.20625,0.99773 -0.55617,1.92092 -1.33585,2.61859 -0.11159,0.10967 -0.48011,0.38693 -0.33476,0.32901 0.48492,-0.19323 0.91684,-0.49936 1.37766,-0.74458 0.0991,-0.0527 -0.18905,0.12295 -0.29223,0.16699 -0.41089,0.17535 -0.86537,0.23608 -1.30781,0.21927 -1.09869,-0.12177 -2.20624,-0.29616 -3.01399,-1.12395 -0.91256,-1.00023 -1.08147,-1.97241 -0.80198,-3.28956 0.30864,-1.50716 0.76911,-2.97281 1.66731,-4.24429 0,0 -1.81032,0.79208 -1.81032,0.79208 z" />
    <circle
       id="path72"
       style="fill:#ffffff;stroke:#000000;stroke-width:0.264583"
       cx="81.032455"
       cy="69.609367"
       r="0.023774292" />
    <circle
       id="path74"
       style="fill:#ffffff;stroke:#000000;stroke-width:0.264583"
       cx="81.032455"
       cy="69.609367"
       r="0.023774292" />
    <path
       style="fill:#ffffff;stroke-width:0.264583"
       id="path219"
       d="m 35.407517,48.366335 c -0.0011,2.599068 0.14981,5.194697 0.239715,7.791691 0.06108,1.766816 0.09872,3.534264 0.117422,5.301995 0.0063,1.154314 0.0057,2.308662 0.0031,3.462986 -0.0035,0.880018 -0.0039,1.760032 -0.0039,2.640055 0.0279,1.256773 -0.399473,1.626867 1.768031,-0.153146 0.09938,-0.08161 -0.0041,-0.257159 -0.0052,-0.385749 -0.0013,-0.165333 -0.0016,-0.330674 -0.0026,-0.496012 -0.0021,-0.97862 2.65e-4,-1.957245 0.0016,-2.935867 0.0011,-0.752668 0.0013,-1.505339 0.0016,-2.258012 0.01656,-0.100997 0.01992,-0.205063 0.04966,-0.302991 0.115829,-0.381434 0.922441,-0.801536 0.611846,-0.617736 -1.588264,0.93989 -1.836888,1.042795 -1.032269,0.664131 0.780979,-0.402481 1.613646,-0.654672 2.476212,-0.802322 0.73497,-0.11516 1.483325,-0.136274 2.142733,0.24112 0.581388,0.508031 0.852723,1.193284 1.014439,1.927648 0.129828,0.799526 0.121293,1.613598 0.123272,2.421303 -0.04898,0.544086 -0.184301,1.041945 -0.430945,1.525844 0,0 1.805043,-0.819746 1.805043,-0.819746 v 0 c 0.232928,-0.509897 0.357888,-1.043286 0.388876,-1.605288 -0.0047,-0.82101 0.0013,-1.649449 -0.14216,-2.460487 -0.183703,-0.783463 -0.488966,-1.506408 -1.09414,-2.062951 -0.669181,-0.442042 -1.444617,-0.468709 -2.224635,-0.355841 -0.871474,0.128773 -1.72031,0.353965 -2.508551,0.758492 -0.788382,0.358132 -2.393538,0.967126 -2.818895,1.786414 -0.10451,0.201303 -0.101719,0.381465 -0.125891,0.601929 1.61e-4,0.752153 5.29e-4,1.504305 0.0016,2.256454 0.0013,0.978056 0.0038,1.956115 0.0016,2.934171 -7.94e-4,0.166193 -0.0011,0.332388 -0.0026,0.498578 -0.0011,0.130366 -0.133088,0.416373 -0.0052,0.391076 2.024425,-0.400447 1.768694,-0.41311 1.768435,-1.64873 5.29e-4,-0.87924 0.0013,-1.758479 -5.29e-4,-2.637719 -0.0011,-1.153964 0.0021,-2.307957 -0.01021,-3.461879 -0.01902,-1.763303 -0.08964,-3.525319 -0.157004,-5.28732 -0.09917,-2.601669 -0.242033,-5.204746 -0.190333,-7.809005 0,0 -1.760291,0.896914 -1.760291,0.896914 z" />
    <path
       style="fill:#ffffff;stroke-width:0.264583"
       id="path1159"
       d="m 109.29285,56.533462 c -1.51467,-0.04897 -2.69251,0.01418 -4.09457,0.636677 -0.76587,0.46305 -1.55587,0.888349 -2.29761,1.38915 -0.96373,0.65069 -1.78147,2.154608 -2.21962,3.205493 -0.58549,1.696162 -0.56431,2.262262 0.84486,3.456813 1.33479,0.966534 2.88296,1.57258 4.44461,2.064237 1.84123,0.19117 3.15793,-1.066887 3.75694,-2.656332 0.37786,-1.057322 0.31921,-2.141429 0.22508,-3.236243 -0.17593,-1.213863 -0.46421,-2.404605 -0.80201,-3.582289 -0.36091,-0.856776 -0.58456,-1.746792 -0.73813,-2.660388 -0.33487,-0.710327 -0.20593,-0.527762 -1.78171,1.042728 -0.11564,0.115253 0.0667,0.319662 0.0969,0.480124 0.1348,0.71809 0.23574,1.441339 0.365,2.160524 0.16943,1.384329 0.57956,2.704967 1.04976,4.011281 0.41046,1.024203 0.92002,2.012712 1.47737,2.96512 0.45858,0.901276 1.10375,1.692722 1.89822,2.315276 0,0 1.67166,-1.054973 1.67166,-1.054973 v 0 c -0.79015,-0.590505 -1.41233,-1.369568 -1.86185,-2.247689 -0.55067,-0.942612 -1.05879,-1.918014 -1.46297,-2.932199 -0.47226,-1.293474 -0.86897,-2.604876 -1.04274,-3.976545 -0.12593,-0.721802 -0.23356,-1.445551 -0.35109,-2.168707 -0.0255,-0.156838 0.082,-0.495621 -0.075,-0.470755 -2.0897,0.331121 -2.1248,0.250555 -1.7336,0.806524 0.17055,0.915654 0.3943,1.812081 0.7586,2.673125 0.33883,1.164688 0.6187,2.345039 0.78277,3.548309 0.0863,1.070295 0.1277,2.129448 -0.266,3.154463 -0.17258,0.406143 -0.21021,0.564155 -0.47343,0.917289 -0.0964,0.129265 -0.47492,0.412361 -0.32218,0.360746 0.48444,-0.163703 0.91771,-0.453271 1.35925,-0.711195 0.1204,-0.07033 -0.25449,0.12273 -0.39194,0.146146 -0.16932,0.02884 -0.34347,0.0056 -0.51521,0.0084 -1.54737,-0.463709 -3.08343,-1.050044 -4.40528,-1.996501 -1.36661,-1.126718 -1.29109,-1.634413 -0.72489,-3.236481 0.41626,-0.941626 0.92966,-1.821445 1.65567,-2.565175 0.18873,-0.193342 0.8768,-0.544002 0.60669,-0.53752 -0.39854,0.0096 -0.70852,0.365641 -1.06277,0.548463 1.40648,-0.694857 2.4829,-0.752573 4.02734,-0.69405 0,0 1.6019,-1.163844 1.6019,-1.163844 z" />
    <path
       style="fill:#ffffff;stroke-width:0.264583"
       id="path1159-2"
       d="m 155.39873,57.333584 c -1.51467,-0.04897 -2.69251,0.01418 -4.09457,0.636677 -0.76587,0.46305 -1.55587,0.888349 -2.29761,1.38915 -0.96373,0.65069 -1.78147,2.154608 -2.21962,3.205493 -0.58549,1.696162 -0.56431,2.262262 0.84486,3.456813 1.33479,0.966534 2.88296,1.57258 4.44461,2.064237 1.84123,0.19117 3.15793,-1.066887 3.75694,-2.656332 0.37786,-1.057322 0.31921,-2.141429 0.22508,-3.236243 -0.17593,-1.213863 -0.46421,-2.404605 -0.80201,-3.582289 -0.36091,-0.856776 -0.58456,-1.746792 -0.73813,-2.660388 -0.33487,-0.710327 -0.20593,-0.527762 -1.78171,1.042728 -0.11564,0.115253 0.0667,0.319662 0.0969,0.480124 0.1348,0.71809 0.23574,1.441339 0.365,2.160524 0.16943,1.384329 0.57956,2.704967 1.04976,4.011281 0.41046,1.024203 0.92002,2.012712 1.47737,2.96512 0.45858,0.901276 1.10375,1.692722 1.89822,2.315276 0,0 1.67166,-1.054973 1.67166,-1.054973 v 0 c -0.79015,-0.590505 -1.41233,-1.369568 -1.86185,-2.247689 -0.55067,-0.942612 -1.05879,-1.918014 -1.46297,-2.932199 -0.47226,-1.293474 -0.86897,-2.604876 -1.04274,-3.976545 -0.12593,-0.721802 -0.23356,-1.445551 -0.35109,-2.168707 -0.0255,-0.156838 0.082,-0.495621 -0.075,-0.470755 -2.0897,0.331121 -2.1248,0.250555 -1.7336,0.806524 0.17055,0.915654 0.3943,1.812081 0.7586,2.673125 0.33883,1.164688 0.6187,2.345039 0.78277,3.548309 0.0863,1.070295 0.1277,2.129448 -0.266,3.154463 -0.17258,0.406143 -0.21021,0.564155 -0.47343,0.917289 -0.0964,0.129265 -0.47492,0.412361 -0.32218,0.360746 0.48444,-0.163703 0.91771,-0.453271 1.35925,-0.711195 0.1204,-0.07033 -0.25449,0.12273 -0.39194,0.146146 -0.16932,0.02884 -0.34347,0.0056 -0.51521,0.0084 -1.54737,-0.463709 -3.08343,-1.050044 -4.40528,-1.996501 -1.36661,-1.126718 -1.29109,-1.634413 -0.72489,-3.236481 0.41626,-0.941626 0.92966,-1.821445 1.65567,-2.565175 0.18873,-0.193342 0.8768,-0.544002 0.60669,-0.53752 -0.39854,0.0096 -0.70852,0.365641 -1.06277,0.548463 1.40648,-0.694857 2.4829,-0.752573 4.02734,-0.69405 0,0 1.6019,-1.163844 1.6019,-1.163844 z" />
    <path
       style="fill:#ffffff;stroke-width:0.264583"
       id="path1161"
       d="m 124.24896,57.985172 c 0.62794,1.430359 1.26281,2.862525 1.76878,4.341712 0.47785,1.144485 0.72112,2.342711 0.83503,3.571087 0.0554,0.707784 0.0423,1.416182 0.11827,2.121889 0,0 1.75079,-0.914945 1.75079,-0.914945 v 0 c -0.0699,-0.704321 -0.0635,-1.411671 -0.12376,-2.117145 -0.12084,-1.242425 -0.37668,-2.452619 -0.86361,-3.608814 -0.51734,-1.482145 -1.15895,-2.916324 -1.76202,-4.364762 0,0 -1.72348,0.970978 -1.72348,0.970978 z" />
    <path
       style="fill:#ffffff;stroke-width:0.264583"
       id="path1163"
       d="m 127.53549,60.000414 c 0.13054,-0.150826 0.25644,-0.305806 0.39163,-0.452477 0.30186,-0.327486 0.60009,-0.621451 0.94712,-0.901124 0.15472,-0.12469 0.65881,-0.441155 0.48146,-0.351528 -3.08022,1.556655 -0.9163,0.589616 -0.68787,0.490149 0.96413,-0.393033 1.95474,-0.181335 2.93534,0.01079 0.85041,0.113144 1.6514,0.311851 2.31928,0.868357 0.7041,0.617249 0.96064,1.45533 1.10882,2.347296 0.006,1.137195 -0.28005,2.254978 -0.4489,3.376176 -0.0867,0.806079 -0.2216,1.627317 -0.12457,2.437262 0.076,0.405707 0.0188,0.211968 0.16754,0.582337 0,0 1.73411,-0.967488 1.73411,-0.967488 v 0 c -0.12875,-0.331362 -0.0777,-0.154112 -0.14458,-0.534159 -0.0764,-0.795121 0.051,-1.597658 0.13876,-2.387362 0.17139,-1.138322 0.46451,-2.277383 0.42223,-3.43326 -0.16423,-0.933006 -0.44923,-1.81174 -1.17416,-2.467187 -0.676,-0.599228 -1.49007,-0.84732 -2.37898,-0.951219 -0.99565,-0.196855 -2.01236,-0.457076 -3.006,-0.1021 -1.776,0.69115 -3.31096,1.738148 -4.50424,3.20711 0,0 1.82301,-0.771565 1.82301,-0.771565 z" />
    <path
       style="fill:#ffffff;stroke-width:0.264583"
       id="path1165"
       d="m 136.31357,63.404926 c 0.35573,-1.269711 0.41261,-2.346449 1.4655,-3.243751 0.12599,-0.07046 0.49952,-0.289235 0.37796,-0.211379 -1.83271,1.173856 -1.71499,0.88664 -0.94649,0.705485 0.36658,-0.08641 0.74037,-0.104465 1.11468,-0.123333 0.70533,0.07551 1.42027,0.165735 2.1123,0.32643 0.72811,0.147074 1.17587,0.708388 1.58413,1.28487 0.4055,0.708231 0.66147,1.482243 0.80407,2.282579 0.14617,1.131583 0.15075,2.275474 0.15918,3.414651 0,0 1.75661,-0.897242 1.75661,-0.897242 v 0 c -0.0144,-1.149553 -0.0216,-2.304124 -0.172,-3.445626 -0.15217,-0.827619 -0.41977,-1.628053 -0.84352,-2.359094 -0.42447,-0.604086 -0.89946,-1.230304 -1.65551,-1.405384 -0.69836,-0.193091 -1.43581,-0.238202 -2.14758,-0.371875 -1.56352,0.04806 -2.63402,0.471596 -3.97165,1.549059 -0.9445,0.952227 -1.06234,2.097717 -1.42449,3.340375 0,0 1.78681,-0.845765 1.78681,-0.845765 z" />
    <path
       style="fill:#ffffff;stroke-width:0.264583"
       id="path1167"
       d="m 160.11582,60.259761 c 0.31562,3.636526 0.86522,7.246816 1.36236,10.8614 0.30265,2.411798 0.16438,1.249262 0.41799,3.487234 0,0 1.69676,-0.889711 1.69676,-0.889711 v 0 c -0.2721,-2.232192 -0.12617,-1.07205 -0.44001,-3.48015 -0.50616,-3.613583 -1.06501,-7.22803 -1.28076,-10.873676 0,0 -1.75634,0.894903 -1.75634,0.894903 z" />
    <path
       style="fill:#ffffff;stroke-width:0.264583"
       id="path1169"
       d="m 164.21156,57.921627 c 0.18388,-0.130534 0.36488,-0.26525 0.55166,-0.391609 0.21056,-0.142455 0.42331,-0.281874 0.64011,-0.41465 0.21361,-0.130821 0.85925,-0.514623 0.65069,-0.375883 -0.34608,0.230227 -0.74012,0.389848 -1.06376,0.650677 -0.16039,0.129259 0.37437,-0.172382 0.56553,-0.249143 0.16969,-0.06813 0.34422,-0.123515 0.51633,-0.185274 0.87291,-0.322366 1.61523,-0.179705 2.31121,0.416973 0.66093,0.643286 0.97637,1.507667 1.31488,2.342705 0.37419,0.957718 0.56284,1.986944 0.45767,3.01013 -0.22168,1.213205 -0.88942,2.120548 -1.8665,2.831148 -1.20749,0.677904 0.28792,-0.153599 0.78295,-0.506357 0.12941,-0.09222 -0.28935,0.131762 -0.43705,0.190399 -0.42249,0.167735 -0.85353,0.317685 -1.27738,0.482852 -0.75357,0.303424 -1.31988,0.419745 -2.09312,0.155157 -0.60395,-0.277043 -1.18659,-0.64415 -1.62433,-1.149157 0,0 -1.69912,1.024519 -1.69912,1.024519 v 0 c 0.45816,0.529664 1.05776,0.920689 1.68213,1.230392 0.84723,0.336778 1.32275,0.281522 2.17824,-0.0398 1.5018,-0.580065 3.00026,-1.146207 4.31892,-2.118072 0.96125,-0.769379 1.60657,-1.741358 1.79824,-2.980221 0.0756,-1.054936 -0.10275,-2.11033 -0.49644,-3.094683 -0.34866,-0.864399 -0.68451,-1.750338 -1.35966,-2.422102 -0.7066,-0.645507 -1.4997,-0.905357 -2.43531,-0.585102 -1.90726,0.636899 -3.6093,1.771711 -5.25373,2.907985 0,0 1.83784,-0.730883 1.83784,-0.730884 z" />
    <path
       style="fill:#ffffff;stroke-width:0.264583"
       id="path1171"
       d="m 185.58537,63.955723 c 2.07591,-1.249521 3.94665,-2.83292 5.41807,-4.766763 0.3723,-0.489315 0.69748,-1.012766 1.04622,-1.51915 1.87577,-3.03349 2.73161,-5.917461 2.6592,-9.494438 -0.0143,-0.707464 -0.0974,-1.411861 -0.1461,-2.117791 -0.39872,-3.416511 -1.24778,-6.741792 -2.28734,-10.011351 0,0 -1.70283,0.936048 -1.70283,0.936048 v 0 c 1.07248,3.239558 1.9338,6.54304 2.31171,9.944661 0.0452,0.700709 0.12501,1.40004 0.13566,2.102125 0.0539,3.552444 -0.83279,6.404636 -2.71654,9.400608 -0.35274,0.501354 -0.68205,1.02003 -1.05821,1.504059 -1.50017,1.930392 -3.4042,3.489325 -5.49696,4.736303 0,0 1.83712,-0.714311 1.83712,-0.714311 z" />
    <circle
       id="path1175"
       style="fill:#ffffff;stroke:#000000;stroke-width:0.264583"
       cx="187.05289"
       cy="28.200722"
       r="0.023774292" />
    <circle
       id="path1177"
       style="fill:#ffffff;stroke:#000000;stroke-width:0.264583"
       cx="187.05289"
       cy="28.200722"
       r="0.023774292" />
    <path
       style="fill:#ffffff;stroke-width:0.264583"
       id="path1179"
       d="m 187.06559,28.887708 c 2.55552,0.721154 5.16534,1.194641 7.78875,1.584272 0.38739,0.06583 0.77477,0.131651 1.16216,0.19748 0,0 1.58699,-1.113248 1.58699,-1.113248 v 0 c -0.39148,-0.06464 -0.78295,-0.129275 -1.17442,-0.193913 -2.60933,-0.37247 -5.20688,-0.83266 -7.73555,-1.592366 0,0 -1.62793,1.117775 -1.62793,1.117775 z" />
    <path
       style="fill:#ffffff;stroke-width:0.264583"
       id="path1538"
       d="m 185.95728,25.492656 c 0.74861,2.368487 0.97548,4.846204 0.97889,7.317103 -0.0314,1.958919 -0.30843,3.948615 -1.06946,5.765017 0,0 1.78652,-0.826191 1.78652,-0.826191 v 0 c 0.70661,-1.849837 0.98746,-3.839734 0.99915,-5.814123 -0.0161,-2.49637 -0.25664,-4.990963 -0.96164,-7.396501 0,0 -1.73346,0.954695 -1.73346,0.954695 z" />
    <path
       style="fill:#ffffff;stroke-width:0.264583"
       id="path1860"
       d="m 82.115547,61.048821 c 1.24345,0.37952 2.51628,0.70524 3.81596,0.79893 1.78141,-0.0449 2.64753,-0.78444 4.19596,-1.74476 0.41013,-0.57005 0.4685,-1.27666 0.40897,-1.95548 -0.19767,-0.58454 -0.4163,-1.34512 -0.89548,-1.77853 -0.1232,-0.11143 -0.27641,-0.1843 -0.41461,-0.27645 -0.9958,-0.4567 -2.10904,-0.57306 -3.19362,-0.54964 -1.7214,0.24902 -3.2947,1.20258 -4.55061,2.38232 -0.92279,1.03641 -1.41187,2.07705 -1.70598,3.41968 -0.17361,1.64906 0.2727,3.31971 1.31813,4.6243 0.26494,0.33061 0.58534,0.61267 0.878,0.919 1.69,1.44947 3.70376,2.36915 5.91549,2.59589 0.54813,0.0393 1.08173,-0.0225 1.61778,-0.1235 0,0 1.57333,-1.19483 1.57333,-1.19483 v 0 c -0.52621,0.12767 -1.04939,0.20062 -1.59459,0.17916 -2.18913,-0.15136 -4.18535,-1.04809 -5.86006,-2.46423 -0.28549,-0.2969 -0.59873,-0.56942 -0.85649,-0.89069 -1.01669,-1.26718 -1.43042,-2.90087 -1.22122,-4.49743 0.30075,-1.25329 0.84666,-2.37768 1.75632,-3.31208 0.89525,-0.79801 0.49803,-0.37446 -0.77751,0.22897 -0.14919,0.0706 0.273,-0.18816 0.42231,-0.25848 0.0703,-0.0331 0.92841,-0.32112 1.00114,-0.34067 0.16194,-0.0435 0.32845,-0.0679 0.49267,-0.10179 1.05399,-0.0596 2.13927,0.0565 3.12384,0.45394 0.12474,0.0731 0.26414,0.12547 0.37424,0.21916 0.45988,0.39133 0.66472,1.13126 0.83912,1.67688 0.0315,0.63834 -0.0272,1.3032 -0.48959,1.788 3.02825,-1.64289 0.47057,-0.0976 -0.75652,-0.14844 -1.28795,-0.0498 -2.55252,-0.38075 -3.77936,-0.76033 0,0 -1.63762,1.1111 -1.63762,1.1111 z" />
    <path
       style="fill:#ffffff;stroke-width:0.264583"
       id="path2252"
       d="m 69.400461,67.009561 c 1.105622,0.83714 2.129144,1.77957 3.274483,2.56282 0.966224,0.64695 1.952506,0.82147 3.049352,0.45382 2.131743,-1.17228 2.382232,-1.07746 2.543802,-3.13801 -0.03296,-0.96458 -0.341876,-1.89438 -0.647234,-2.802 -0.397743,-1.17897 -1.616324,-1.37074 -2.699017,-1.55082 -0.917255,-0.15291 -1.832306,-0.31931 -2.604434,-0.85982 -0.648428,-0.48864 -0.946761,-1.16537 -1.101826,-1.93763 -0.217776,-0.98229 0.20701,-1.82614 0.659871,-2.6718 0.260387,-0.41995 0.576165,-0.79688 0.995048,-1.06644 0.113985,-0.0733 0.473546,-0.26324 0.359648,-0.18976 -1.319985,0.85165 -1.87882,0.98026 -0.991333,0.72245 0.686213,-0.12871 1.398794,-0.17799 2.093841,-0.10118 0.380331,0.0739 0.2013,0.0222 0.538914,0.14857 0,0 1.651294,-1.10276 1.651294,-1.10276 v 0 c -0.360358,-0.16446 -0.170993,-0.10031 -0.569283,-0.18889 -0.704792,-0.12106 -1.436502,-0.0477 -2.142268,0.04 -1.114009,0.25274 -0.348035,0.0445 -2.428496,1.19119 -0.568233,0.31319 -0.984483,0.79679 -1.303531,1.35563 -0.454292,0.89071 -0.848045,1.78063 -0.609851,2.7986 0.176926,0.81414 0.504028,1.53523 1.178224,2.06253 0.786119,0.58271 1.709322,0.7805 2.665269,0.93019 1.008626,0.15088 2.205035,0.26365 2.576272,1.37451 0.298497,0.88209 0.604538,1.78942 0.609891,2.72963 -0.04947,0.51994 -0.08445,1.09231 -0.387496,1.54124 -0.06543,0.0969 -0.339905,0.3091 -0.232584,0.26264 0.489254,-0.21177 0.934908,-0.51265 1.40236,-0.76897 -1.037783,0.45189 -1.997636,0.32919 -2.947389,-0.29413 -1.150284,-0.76151 -2.166745,-1.70058 -3.255246,-2.54545 0,0 -1.678281,1.04388 -1.678281,1.04388 z" />
  </g>
</svg>
